<?xml version="1.0" encoding="UTF-8"?>
<svg id="Layer_2" data-name="Layer 2" xmlns="http://www.w3.org/2000/svg" xmlns:xlink="http://www.w3.org/1999/xlink" viewBox="0 0 755.97 409.1">
  <defs>
    <style>
      .cls-1 {
        clip-path: url(#clippath);
      }

      .cls-2, .cls-3, .cls-4 {
        fill: none;
      }

      .cls-2, .cls-5 {
        stroke-width: 0px;
      }

      .cls-6 {
        opacity: .1;
      }

      .cls-3 {
        stroke: aqua;
        stroke-width: 2px;
      }

      .cls-7 {
        fill: #f0f;
        stroke: #f0f;
        stroke-width: 3px;
      }

      .cls-7, .cls-4 {
        stroke-miterlimit: 10;
      }

      .cls-5 {
        fill: #0f1221;
      }

      .cls-4 {
        stroke: #fff;
        stroke-width: .5px;
      }
    </style>
    <clipPath id="clippath">
      <path class="cls-2" d="m0,0v409.1h699.18V0H0Zm602.49,376.86h-184.23l58.6-61.32h184.23l-58.6,61.32Zm62.45-78.93h-185V39.79h185v258.14Z"/>
    </clipPath>
  </defs>
  <g id="Layer_1-2" data-name="Layer 1">
    <path class="cls-7" d="m599.63,324.91c.81,0,1.63-.07,2.43-.21,7.78-1.33,13.03-8.76,11.7-16.54l-7.64-44.64c-.19-1.12.14-2.26.91-3.1l30.51-33.57c1.7-1.87,4.64-1.87,6.34,0l39.24,43.16c2.12,2.33,5.13,3.67,8.29,3.67h48.28c7.73,0,14.41-5.93,14.77-13.65.38-8.21-6.18-15.01-14.31-15.01h-39.13c-1.21,0-2.36-.51-3.17-1.4l-29.43-32.37c-.49-.54-.83-1.18-1-1.89l-12.98-54.47c-.64-2.69,1.4-5.28,4.16-5.28h18.63c1.41,0,2.74.7,3.54,1.87l17.99,26.34c.27.4.6.76.99,1.04,7.26,5.35,16.17,3.94,21.11-2.55.43-.57.81-1.18,1.13-1.82,2.47-4.95,2.05-10.46-.89-14.76l-23.15-33.9c-2.09-3.06-5.55-4.88-9.25-4.88h-85.49c-4.35,0-8.37,2.13-10.81,5.68l-18.11,26.52c-.8,1.17-2.12,1.87-3.54,1.87h-35.62c-7.95,0-14.53,6.31-14.67,14.06-.12,6.45,3.98,12.29,11.07,14.43.4.12.82.17,1.24.17h53.1c1.41,0,2.74-.7,3.54-1.87l8.76-12.83c2.1-3.07,6.84-2.19,7.7,1.42l8.66,36.35c.33,1.38-.05,2.83-1,3.87l-34.66,38.12c-2.34,2.57-3.34,6.01-2.75,9.43l9.38,54.81c1.18,6.9,7.11,11.91,14.1,11.91"/>
    <g class="cls-1">
      <g>
        <rect class="cls-5" x="-528.54" y="-276.55" width="1920" height="1080"/>
        <g class="cls-6">
          <line class="cls-4" x1="-528.54" y1="1.05" x2="1391.46" y2="1.05"/>
          <line class="cls-4" x1="-528.54" y1="11.05" x2="1391.46" y2="11.05"/>
          <line class="cls-4" x1="-528.54" y1="21.05" x2="1391.46" y2="21.05"/>
          <line class="cls-4" x1="-528.54" y1="31.05" x2="1391.46" y2="31.05"/>
          <line class="cls-4" x1="-528.54" y1="41.05" x2="1391.46" y2="41.05"/>
          <line class="cls-4" x1="-528.54" y1="51.05" x2="1391.46" y2="51.05"/>
          <line class="cls-4" x1="-528.54" y1="61.05" x2="1391.46" y2="61.05"/>
          <line class="cls-4" x1="-528.54" y1="71.05" x2="1391.46" y2="71.05"/>
          <line class="cls-4" x1="-528.54" y1="81.05" x2="1391.46" y2="81.05"/>
          <line class="cls-4" x1="-528.54" y1="91.05" x2="1391.46" y2="91.05"/>
          <line class="cls-4" x1="-528.54" y1="101.05" x2="1391.46" y2="101.05"/>
          <line class="cls-4" x1="-528.54" y1="111.05" x2="1391.46" y2="111.05"/>
          <line class="cls-4" x1="-528.54" y1="121.05" x2="1391.46" y2="121.05"/>
          <line class="cls-4" x1="-528.54" y1="131.05" x2="1391.46" y2="131.05"/>
          <line class="cls-4" x1="-528.54" y1="141.05" x2="1391.46" y2="141.05"/>
          <line class="cls-4" x1="-528.54" y1="151.05" x2="1391.46" y2="151.05"/>
          <line class="cls-4" x1="-528.54" y1="161.05" x2="1391.46" y2="161.05"/>
          <line class="cls-4" x1="-528.54" y1="171.05" x2="1391.46" y2="171.05"/>
          <line class="cls-4" x1="-528.54" y1="181.05" x2="1391.46" y2="181.05"/>
          <line class="cls-4" x1="-528.54" y1="191.05" x2="1391.46" y2="191.05"/>
          <line class="cls-4" x1="-528.54" y1="201.05" x2="1391.46" y2="201.05"/>
          <line class="cls-4" x1="-528.54" y1="211.05" x2="1391.46" y2="211.05"/>
          <line class="cls-4" x1="-528.54" y1="221.05" x2="1391.46" y2="221.05"/>
          <line class="cls-4" x1="-528.54" y1="231.05" x2="1391.46" y2="231.05"/>
          <line class="cls-4" x1="-528.54" y1="241.05" x2="1391.46" y2="241.05"/>
          <line class="cls-4" x1="-528.54" y1="251.05" x2="1391.46" y2="251.05"/>
          <line class="cls-4" x1="-528.54" y1="261.05" x2="1391.46" y2="261.05"/>
          <line class="cls-4" x1="-528.54" y1="271.05" x2="1391.46" y2="271.05"/>
          <line class="cls-4" x1="-528.54" y1="281.05" x2="1391.46" y2="281.05"/>
          <line class="cls-4" x1="-528.54" y1="291.05" x2="1391.46" y2="291.05"/>
          <line class="cls-4" x1="-528.54" y1="301.05" x2="1391.46" y2="301.05"/>
          <line class="cls-4" x1="-528.54" y1="311.05" x2="1391.46" y2="311.05"/>
          <line class="cls-4" x1="-528.54" y1="321.05" x2="1391.46" y2="321.05"/>
          <line class="cls-4" x1="-528.54" y1="331.05" x2="1391.46" y2="331.05"/>
          <line class="cls-4" x1="-528.54" y1="341.05" x2="1391.46" y2="341.05"/>
          <line class="cls-4" x1="-528.54" y1="351.05" x2="1391.46" y2="351.05"/>
          <line class="cls-4" x1="-528.54" y1="361.05" x2="1391.46" y2="361.05"/>
          <line class="cls-4" x1="-528.54" y1="371.05" x2="1391.46" y2="371.05"/>
          <line class="cls-4" x1="-528.54" y1="381.05" x2="1391.46" y2="381.05"/>
          <line class="cls-4" x1="-528.54" y1="391.05" x2="1391.46" y2="391.05"/>
          <line class="cls-4" x1="-528.54" y1="401.05" x2="1391.46" y2="401.05"/>
        </g>
      </g>
    </g>
    <g>
      <path class="cls-3" d="m53.22,50.62c-.39-.63-.88-1.18-1.47-1.66-.59-.48-1.26-.85-2-1.11-.74-.27-1.52-.4-2.33-.4-1.49,0-2.75.29-3.79.86-1.04.58-1.88,1.35-2.52,2.31-.65.97-1.11,2.07-1.41,3.3s-.44,2.51-.44,3.83.15,2.49.44,3.68c.29,1.19.76,2.26,1.41,3.22.64.95,1.49,1.72,2.52,2.29,1.04.58,2.3.86,3.79.86,2.02,0,3.6-.62,4.73-1.85.97-1.06,1.62-2.4,1.95-4.04.1-.48.5-.84.99-.84h4.41c.63,0,1.08.57.99,1.18-.22,1.41-.61,2.72-1.16,3.91-.7,1.51-1.63,2.8-2.78,3.87-1.15,1.07-2.5,1.88-4.04,2.44-1.54.56-3.24.84-5.09.84-2.3,0-4.37-.4-6.2-1.2-1.84-.8-3.39-1.9-4.65-3.3-1.26-1.4-2.23-3.05-2.9-4.94-.67-1.89-1.01-3.93-1.01-6.12s.34-4.32,1.01-6.25c.67-1.92,1.64-3.6,2.9-5.03,1.26-1.43,2.81-2.55,4.65-3.36,1.84-.81,3.9-1.22,6.2-1.22,1.65,0,3.22.24,4.69.72,1.47.48,2.79,1.17,3.95,2.08,1.16.91,2.12,2.04,2.88,3.39.58,1.03.99,2.17,1.24,3.42.12.62-.35,1.2-.99,1.2h-4.42c-.44,0-.83-.29-.95-.71-.14-.49-.34-.94-.61-1.37Z"/>
      <path class="cls-3" d="m66.93,51.5c.67-1.92,1.64-3.6,2.9-5.03,1.26-1.43,2.81-2.55,4.65-3.36,1.84-.81,3.9-1.22,6.2-1.22s4.4.41,6.22,1.22c1.82.81,3.36,1.94,4.63,3.36,1.26,1.43,2.23,3.11,2.9,5.03.67,1.92,1.01,4,1.01,6.25s-.34,4.23-1.01,6.12c-.67,1.89-1.64,3.54-2.9,4.94-1.26,1.4-2.8,2.5-4.63,3.3-1.82.8-3.9,1.2-6.22,1.2s-4.37-.4-6.2-1.2c-1.84-.8-3.39-1.9-4.65-3.3-1.26-1.4-2.23-3.05-2.9-4.94-.67-1.89-1.01-3.93-1.01-6.12s.34-4.32,1.01-6.25Zm6.04,9.93c.29,1.19.76,2.26,1.41,3.22.64.95,1.49,1.72,2.52,2.29,1.04.58,2.3.86,3.79.86s2.75-.29,3.79-.86c1.04-.57,1.88-1.34,2.52-2.29.65-.95,1.11-2.03,1.41-3.22.29-1.19.44-2.42.44-3.68s-.15-2.59-.44-3.83-.76-2.33-1.41-3.3-1.49-1.74-2.52-2.31c-1.04-.57-2.3-.86-3.79-.86s-2.75.29-3.79.86c-1.04.58-1.88,1.35-2.52,2.31-.65.97-1.11,2.07-1.41,3.3s-.44,2.51-.44,3.83.15,2.49.44,3.68Z"/>
      <path class="cls-3" d="m108.05,42.61c.35,0,.67.18.85.47l12.24,19.67h.08v-19.15c0-.55.45-1,1-1h4.18c.55,0,1,.45,1,1v28.03c0,.55-.45,1-1,1h-5.05c-.35,0-.67-.18-.85-.47l-12.2-19.63h-.08v19.1c0,.55-.45,1-1,1h-4.18c-.55,0-1-.45-1-1v-28.03c0-.55.45-1,1-1h5.01Z"/>
      <path class="cls-3" d="m132.96,47.16v-3.55c0-.55.45-1,1-1h22.6c.55,0,1,.45,1,1v3.55c0,.55-.45,1-1,1h-7c-.55,0-1,.45-1,1v22.48c0,.55-.45,1-1,1h-4.6c-.55,0-1-.45-1-1v-22.48c0-.55-.45-1-1-1h-7c-.55,0-1-.45-1-1Z"/>
      <path class="cls-3" d="m185.58,43.61v3.55c0,.55-.45,1-1,1h-13.86c-.55,0-1,.45-1,1v4.44c0,.55.45,1,1,1h12.55c.55,0,1,.45,1,1v3.13c0,.55-.45,1-1,1h-12.55c-.55,0-1,.45-1,1v5.36c0,.55.45,1,1,1h14.19c.55,0,1,.45,1,1v3.55c0,.55-.45,1-1,1h-20.8c-.55,0-1-.45-1-1v-28.03c0-.55.45-1,1-1h20.46c.55,0,1,.45,1,1Z"/>
      <path class="cls-3" d="m198.48,42.61c.35,0,.67.18.85.47l12.24,19.67h.08v-19.15c0-.55.45-1,1-1h4.18c.55,0,1,.45,1,1v28.03c0,.55-.45,1-1,1h-5.05c-.35,0-.67-.18-.85-.47l-12.2-19.63h-.08v19.1c0,.55-.45,1-1,1h-4.18c-.55,0-1-.45-1-1v-28.03c0-.55.45-1,1-1h5.01Z"/>
      <path class="cls-3" d="m223.39,47.16v-3.55c0-.55.45-1,1-1h22.6c.55,0,1,.45,1,1v3.55c0,.55-.45,1-1,1h-7c-.55,0-1,.45-1,1v22.48c0,.55-.45,1-1,1h-4.6c-.55,0-1-.45-1-1v-22.48c0-.55-.45-1-1-1h-7c-.55,0-1-.45-1-1Z"/>
      <path class="cls-3" d="m258.59,65.23c.36.7.85,1.27,1.45,1.7.6.44,1.31.76,2.12.97.81.21,1.65.32,2.52.32.59,0,1.22-.05,1.89-.15.67-.1,1.3-.29,1.89-.57.59-.28,1.08-.67,1.47-1.16.39-.49.59-1.11.59-1.87,0-.81-.26-1.47-.78-1.98-.52-.5-1.2-.93-2.04-1.26s-1.79-.63-2.86-.88-2.14-.53-3.24-.84c-1.12-.28-2.22-.62-3.28-1.03-1.07-.41-2.02-.93-2.86-1.58-.84-.64-1.52-1.45-2.04-2.42-.52-.97-.78-2.14-.78-3.51,0-1.54.33-2.88.99-4.02s1.52-2.08,2.59-2.84c1.07-.76,2.27-1.32,3.62-1.68,1.35-.36,2.69-.55,4.04-.55,1.57,0,3.08.18,4.52.53,1.44.35,2.73.92,3.85,1.7,1.12.79,2.01,1.79,2.67,3.01.51.95.83,2.06.94,3.33.05.59-.41,1.11-1,1.11h-4.46c-.48,0-.89-.34-.98-.81-.1-.54-.25-1.02-.47-1.42-.32-.59-.75-1.05-1.28-1.39-.53-.34-1.14-.57-1.83-.71-.69-.14-1.44-.21-2.25-.21-.53,0-1.07.06-1.6.17-.53.11-1.02.31-1.45.59-.44.28-.79.63-1.07,1.05s-.42.95-.42,1.6c0,.59.11,1.07.34,1.43.22.36.67.7,1.33,1.01.66.31,1.57.62,2.73.93,1.16.31,2.68.7,4.56,1.18.56.11,1.34.32,2.33.61,1,.29,1.98.76,2.96,1.41s1.83,1.51,2.54,2.59c.71,1.08,1.07,2.46,1.07,4.14,0,1.37-.27,2.65-.8,3.83-.53,1.18-1.33,2.19-2.38,3.05-1.05.86-2.36,1.52-3.91,2-1.56.48-3.36.71-5.4.71-1.66,0-3.26-.2-4.82-.61-1.56-.41-2.93-1.04-4.12-1.91-1.19-.87-2.14-1.98-2.84-3.32-.56-1.07-.89-2.31-.98-3.7-.04-.59.41-1.09,1-1.09h4.43c.51,0,.93.38.99.89.08.63.24,1.19.5,1.68Z"/>
    </g>
    <path class="cls-7" d="m643.69,120.96h-40.47c-4.35,0-8.37,2.13-10.81,5.68l-18.11,26.52c-.8,1.17-2.12,1.87-3.54,1.87h-35.62c-7.95,0-14.53,6.31-14.67,14.06-.12,6.45,3.98,12.29,11.07,14.43.4.12.82.17,1.24.17h53.1c1.41,0,2.74-.7,3.54-1.87l8.76-12.83c2.1-3.07,6.84-2.19,7.7,1.42l8.66,36.35c.33,1.38-.05,2.83-1,3.87l-34.66,38.12c-2.34,2.57-3.34,6.01-2.75,9.43l9.38,54.81c1.18,6.9,7.11,11.91,14.1,11.91.81,0,1.63-.07,2.43-.21,7.78-1.33,13.03-8.76,11.7-16.54l-7.64-44.64c-.19-1.12.14-2.26.91-3.1l30.51-33.57c1.64-1.81,4.43-1.85,6.15-.17"/>
    <circle class="cls-7" cx="622.03" cy="84.31" r="26.74"/>
  </g>
</svg>