<?xml version="1.0" encoding="UTF-8"?>
<svg id="Layer_2" data-name="Layer 2" xmlns="http://www.w3.org/2000/svg" viewBox="0 0 395.43 395.43">
  <defs>
    <style>
      .cls-1 {
        stroke: #fff;
      }

      .cls-1, .cls-2, .cls-3 {
        fill: none;
        stroke-miterlimit: 10;
        stroke-width: 3px;
      }

      .cls-2 {
        stroke: #f0f;
      }

      .cls-3 {
        stroke: aqua;
      }

      .cls-4 {
        fill: #f0f;
        stroke-width: 0px;
      }
    </style>
  </defs>
  <g id="Layer_1-2" data-name="Layer 1">
    <path class="cls-2" d="m266.86,100.59c16.86,0,30.53,13.67,30.53,30.53s-13.67,30.53-30.53,30.53-30.53-13.67-30.53-30.53,13.67-30.53,30.53-30.53Zm-69.15,22.04c16.86,0,30.53,13.67,30.53,30.53s-13.67,30.53-30.53,30.53-30.52-13.67-30.52-30.53,13.67-30.53,30.52-30.53Zm-69.15-22.04c16.86,0,30.53,13.67,30.53,30.53s-13.67,30.53-30.53,30.53-30.52-13.67-30.52-30.53,13.67-30.53,30.52-30.53Zm5.85,172.2h-26c-1.66,0-3-1.34-3-3v-58.46c0-2.12-1.55-4.02-3.67-4.22-2.43-.23-4.47,1.67-4.47,4.05v58.63c0,1.66-1.34,3-3,3h-13.58c-1.66,0-3-1.34-3-3v-65.5c0-16.5,13.38-29.88,29.88-29.88h41.97c9.45,0,17.88,4.39,23.35,11.25.49.61.13,1.54-.65,1.63-19.58,2.23-34.84,18.88-34.84,39.05v43.46c0,1.66-1.34,3-3,3Zm111.17,22.04h-13.58c-1.66,0-3-1.34-3-3v-58.46c0-2.12-1.55-4.02-3.67-4.22-2.43-.23-4.47,1.67-4.47,4.05v58.63c0,1.66-1.34,3-3,3h-40.3c-1.66,0-3-1.34-3-3v-58.46c0-2.12-1.55-4.02-3.67-4.22-2.43-.23-4.47,1.67-4.47,4.05v58.63c0,1.66-1.34,3-3,3h-13.58c-1.66,0-3-1.34-3-3v-65.5c0-16.5,13.38-29.88,29.88-29.88h41.97c16.5,0,29.88,13.38,29.88,29.88v65.5c0,1.66-1.34,3-3,3Zm69.15-22.04h-13.58c-1.66,0-3-1.34-3-3v-58.46c0-2.12-1.55-4.02-3.67-4.22-2.43-.23-4.47,1.67-4.47,4.05v58.63c0,1.66-1.34,3-3,3h-26c-1.66,0-3-1.34-3-3v-43.46c0-20.16-15.26-36.82-34.84-39.05-.78-.09-1.14-1.02-.65-1.63,5.47-6.85,13.9-11.25,23.35-11.25h41.97c16.5,0,29.88,13.38,29.88,29.88v65.5c0,1.66-1.34,3-3,3Z"/>
    <path class="cls-4" d="m388.43,2.5c2.48,0,4.5,2.02,4.5,4.5v381.43c0,2.48-2.02,4.5-4.5,4.5H7c-2.48,0-4.5-2.02-4.5-4.5V7c0-2.48,2.02-4.5,4.5-4.5h381.43m0-2.5H7C3.13,0,0,3.13,0,7v381.43c0,3.87,3.13,7,7,7h381.43c3.87,0,7-3.13,7-7V7c0-3.87-3.13-7-7-7h0Z"/>
    <path class="cls-3" d="m53.85,76.54l37.5,7.49c1.4.28,2.63-.95,2.35-2.35l-7.49-37.5c-.31-1.57-2.25-2.15-3.38-1.02l-5.33,5.33c-.78.78-2.05.78-2.83,0l-21.03-21.03c-.78-.78-2.05-.78-2.83,0l-13.69,13.69c-.78.78-.78,2.05,0,2.83l21.03,21.03c.78.78.78,2.05,0,2.83l-5.33,5.33c-1.13,1.13-.54,3.06,1.02,3.38Z"/>
    <path class="cls-3" d="m341.58,318.89l-37.5-7.49c-1.4-.28-2.63.95-2.35,2.35l7.49,37.5c.31,1.57,2.25,2.15,3.38,1.02l5.33-5.33c.78-.78,2.05-.78,2.83,0l21.03,21.03c.78.78,2.05.78,2.83,0l13.69-13.69c.78-.78.78-2.05,0-2.83l-21.03-21.03c-.78-.78-.78-2.05,0-2.83l5.33-5.33c1.13-1.13.54-3.06-1.02-3.38Z"/>
    <path class="cls-1" d="m309.22,44.18l-7.49,37.5c-.28,1.4.95,2.63,2.35,2.35l37.5-7.49c1.57-.31,2.15-2.25,1.02-3.38l-5.33-5.33c-.78-.78-.78-2.05,0-2.83l21.03-21.03c.78-.78.78-2.05,0-2.83l-13.69-13.69c-.78-.78-2.05-.78-2.83,0l-21.03,21.03c-.78.78-2.05.78-2.83,0l-5.33-5.33c-1.13-1.13-3.06-.54-3.38,1.02Z"/>
    <path class="cls-1" d="m86.21,351.25l7.49-37.5c.28-1.4-.95-2.63-2.35-2.35l-37.5,7.49c-1.57.31-2.15,2.25-1.02,3.38l5.33,5.33c.78.78.78,2.05,0,2.83l-21.03,21.03c-.78.78-.78,2.05,0,2.83l13.69,13.69c.78.78,2.05.78,2.83,0l21.03-21.03c.78-.78,2.05-.78,2.83,0l5.33,5.33c1.13,1.13,3.06.54,3.38-1.02Z"/>
  </g>
</svg>