<?xml version="1.0" encoding="UTF-8"?>
<svg id="Layer_2" data-name="Layer 2" xmlns="http://www.w3.org/2000/svg" viewBox="0 0 1093.61 396.8">
  <defs>
    <style>
      .cls-1, .cls-2, .cls-3 {
        stroke-width: 3px;
      }

      .cls-1, .cls-2, .cls-3, .cls-4, .cls-5 {
        fill: none;
        stroke-miterlimit: 10;
      }

      .cls-1, .cls-4 {
        stroke: #fff;
      }

      .cls-2 {
        stroke: #f0f;
      }

      .cls-3, .cls-5 {
        stroke: aqua;
      }

      .cls-4, .cls-5 {
        stroke-width: 2.5px;
      }

      .cls-6 {
        fill: #f0f;
        stroke-width: 0px;
      }
    </style>
  </defs>
  <g id="Layer_1-2" data-name="Layer 1">
    <path class="cls-2" d="m266.86,100.65c16.86,0,30.53,13.67,30.53,30.53s-13.67,30.53-30.53,30.53-30.53-13.67-30.53-30.53,13.67-30.53,30.53-30.53Zm-69.15,22.04c16.86,0,30.53,13.67,30.53,30.53s-13.67,30.53-30.53,30.53-30.52-13.67-30.52-30.53,13.67-30.53,30.52-30.53Zm-69.15-22.04c16.86,0,30.53,13.67,30.53,30.53s-13.67,30.53-30.53,30.53-30.52-13.67-30.52-30.53,13.67-30.53,30.52-30.53Zm5.85,172.2h-26c-1.66,0-3-1.34-3-3v-58.46c0-2.12-1.55-4.02-3.67-4.22-2.43-.23-4.47,1.67-4.47,4.05v58.63c0,1.66-1.34,3-3,3h-13.58c-1.66,0-3-1.34-3-3v-65.5c0-16.5,13.38-29.88,29.88-29.88h41.97c9.45,0,17.88,4.39,23.35,11.25.49.61.13,1.54-.65,1.63-19.58,2.23-34.84,18.88-34.84,39.05v43.46c0,1.66-1.34,3-3,3Zm111.17,22.04h-13.58c-1.66,0-3-1.34-3-3v-58.46c0-2.12-1.55-4.02-3.67-4.22-2.43-.23-4.47,1.67-4.47,4.05v58.63c0,1.66-1.34,3-3,3h-40.3c-1.66,0-3-1.34-3-3v-58.46c0-2.12-1.55-4.02-3.67-4.22-2.43-.23-4.47,1.67-4.47,4.05v58.63c0,1.66-1.34,3-3,3h-13.58c-1.66,0-3-1.34-3-3v-65.5c0-16.5,13.38-29.88,29.88-29.88h41.97c16.5,0,29.88,13.38,29.88,29.88v65.5c0,1.66-1.34,3-3,3Zm69.15-22.04h-13.58c-1.66,0-3-1.34-3-3v-58.46c0-2.12-1.55-4.02-3.67-4.22-2.43-.23-4.47,1.67-4.47,4.05v58.63c0,1.66-1.34,3-3,3h-26c-1.66,0-3-1.34-3-3v-43.46c0-20.16-15.26-36.82-34.84-39.05-.78-.09-1.14-1.02-.65-1.63,5.47-6.85,13.9-11.25,23.35-11.25h41.97c16.5,0,29.88,13.38,29.88,29.88v65.5c0,1.66-1.34,3-3,3Z"/>
    <path class="cls-6" d="m1085.36,138.71c2.48,0,4.5,2.02,4.5,4.5v109.12c0,2.48-2.02,4.5-4.5,4.5H417.73c-2.48,0-4.5-2.02-4.5-4.5v-109.12c0-2.48,2.02-4.5,4.5-4.5h667.63m0-2.5H417.73c-3.87,0-7,3.13-7,7v109.12c0,3.87,3.13,7,7,7h667.63c3.87,0,7-3.13,7-7v-109.12c0-3.87-3.13-7-7-7h0Z"/>
    <path class="cls-6" d="m1085.36,274.93c2.48,0,4.5,2.02,4.5,4.5v109.12c0,2.48-2.02,4.5-4.5,4.5H417.73c-2.48,0-4.5-2.02-4.5-4.5v-109.12c0-2.48,2.02-4.5,4.5-4.5h667.63m0-2.5H417.73c-3.87,0-7,3.13-7,7v109.12c0,3.87,3.13,7,7,7h667.63c3.87,0,7-3.13,7-7v-109.12c0-3.87-3.13-7-7-7h0Z"/>
    <path class="cls-6" d="m1085.36,2.5c2.48,0,4.5,2.02,4.5,4.5v109.12c0,2.48-2.02,4.5-4.5,4.5H417.73c-2.48,0-4.5-2.02-4.5-4.5V7c0-2.48,2.02-4.5,4.5-4.5h667.63m0-2.5H417.73c-3.87,0-7,3.13-7,7v109.12c0,3.87,3.13,7,7,7h667.63c3.87,0,7-3.13,7-7V7c0-3.87-3.13-7-7-7h0Z"/>
    <path class="cls-6" d="m388.43,2.56c2.48,0,4.5,2.02,4.5,4.5v381.43c0,2.48-2.02,4.5-4.5,4.5H7c-2.48,0-4.5-2.02-4.5-4.5V7.06c0-2.48,2.02-4.5,4.5-4.5h381.43m0-2.5H7C3.13.06,0,3.2,0,7.06v381.43c0,3.87,3.13,7,7,7h381.43c3.87,0,7-3.13,7-7V7.06c0-3.87-3.13-7-7-7h0Z"/>
    <path class="cls-5" d="m482.39,29.26c4.17,0,8.05.67,11.64,1.99,3.59,1.33,6.7,3.32,9.33,5.98,2.63,2.66,4.68,5.98,6.16,9.97,1.48,3.99,2.22,8.67,2.22,14.04,0,4.71-.6,9.06-1.81,13.05-1.21,3.99-3.03,7.43-5.48,10.33-2.45,2.9-5.5,5.18-9.15,6.84-3.66,1.66-7.96,2.49-12.91,2.49h-25.91c-1.1,0-2-.9-2-2V31.26c0-1.1.9-2,2-2h25.91Zm-1,52.73c2.05,0,4.05-.33,5.98-1,1.93-.66,3.65-1.77,5.16-3.31,1.51-1.54,2.72-3.55,3.62-6.03.91-2.47,1.36-5.49,1.36-9.06,0-3.26-.32-6.2-.95-8.83-.63-2.63-1.67-4.88-3.13-6.75-1.45-1.87-3.37-3.31-5.75-4.3-2.39-.99-5.33-1.49-8.83-1.49h-8.15c-1.1,0-2,.9-2,2v36.77c0,1.1.9,2,2,2h10.69Z"/>
    <path class="cls-5" d="m554.36,30.56l22.7,60.69c.49,1.31-.48,2.7-1.87,2.7h-10.45c-.86,0-1.62-.55-1.89-1.36l-3.97-11.69c-.28-.81-1.04-1.36-1.89-1.36h-21.34c-.85,0-1.6.54-1.89,1.34l-4.13,11.73c-.28.8-1.04,1.34-1.89,1.34h-10c-1.4,0-2.37-1.4-1.87-2.71l22.95-60.69c.29-.78,1.04-1.29,1.87-1.29h11.82c.83,0,1.58.52,1.87,1.3Zm-2.47,38.38c1.37,0,2.34-1.35,1.89-2.65l-7.24-21.09h-.18l-7.48,21.07c-.46,1.3.5,2.67,1.88,2.67h11.13Z"/>
    <path class="cls-5" d="m570.28,39.22v-7.96c0-1.1.9-2,2-2h49.01c1.1,0,2,.9,2,2v7.96c0,1.1-.9,2-2,2h-15.39c-1.1,0-2,.9-2,2v48.73c0,1.1-.9,2-2,2h-10.23c-1.1,0-2-.9-2-2v-48.73c0-1.1-.9-2-2-2h-15.39c-1.1,0-2-.9-2-2Z"/>
    <path class="cls-5" d="m655.12,30.56l22.7,60.69c.49,1.31-.48,2.7-1.87,2.7h-10.45c-.86,0-1.62-.55-1.89-1.36l-3.97-11.69c-.28-.81-1.04-1.36-1.89-1.36h-21.34c-.85,0-1.6.54-1.89,1.34l-4.13,11.73c-.28.8-1.04,1.34-1.89,1.34h-10c-1.4,0-2.37-1.4-1.87-2.71l22.95-60.69c.29-.78,1.04-1.29,1.87-1.29h11.82c.83,0,1.58.52,1.87,1.3Zm-2.47,38.38c1.37,0,2.34-1.35,1.89-2.65l-7.24-21.09h-.18l-7.48,21.07c-.46,1.3.5,2.67,1.88,2.67h11.13Z"/>
    <path class="cls-5" d="m758.02,31.26v7.96c0,1.1-.9,2-2,2h-30.16c-1.1,0-2,.9-2,2v9.86c0,1.1.9,2,2,2h27.35c1.1,0,2,.9,2,2v7.05c0,1.1-.9,2-2,2h-27.35c-1.1,0-2,.9-2,2v11.86c0,1.1.9,2,2,2h30.88c1.1,0,2,.9,2,2v7.96c0,1.1-.9,2-2,2h-45.11c-1.1,0-2-.9-2-2V31.26c0-1.1.9-2,2-2h44.38c1.1,0,2,.9,2,2Z"/>
    <path class="cls-5" d="m766.28,39.22v-7.96c0-1.1.9-2,2-2h49.01c1.1,0,2,.9,2,2v7.96c0,1.1-.9,2-2,2h-15.39c-1.1,0-2,.9-2,2v48.73c0,1.1-.9,2-2,2h-10.22c-1.1,0-2-.9-2-2v-48.73c0-1.1-.9-2-2-2h-15.39c-1.1,0-2-.9-2-2Z"/>
    <path class="cls-5" d="m841.94,31.26v20.83c0,1.1.9,2,2,2h22.18c1.1,0,2-.9,2-2v-20.83c0-1.1.9-2,2-2h10.22c1.1,0,2,.9,2,2v60.69c0,1.1-.9,2-2,2h-10.22c-1.1,0-2-.9-2-2v-23.91c0-1.1-.9-2-2-2h-22.18c-1.1,0-2,.9-2,2v23.91c0,1.1-.9,2-2,2h-10.22c-1.1,0-2-.9-2-2V31.26c0-1.1.9-2,2-2h10.22c1.1,0,2,.9,2,2Z"/>
    <path class="cls-5" d="m909.07,31.26v60.69c0,1.1-.9,2-2,2h-10.22c-1.1,0-2-.9-2-2V31.26c0-1.1.9-2,2-2h10.22c1.1,0,2,.9,2,2Z"/>
    <path class="cls-5" d="m964.12,48.53c-.95-2.23-2.36-4.08-4.22-5.59-1.27-1.03-2.7-1.83-4.3-2.4s-3.28-.86-5.03-.86c-3.2,0-5.92.62-8.15,1.85-2.23,1.24-4.05,2.9-5.44,4.98-1.39,2.08-2.4,4.46-3.03,7.11-.64,2.66-.95,5.41-.95,8.25s.32,5.36.95,7.93c.63,2.57,1.64,4.88,3.03,6.93,1.39,2.05,3.2,3.7,5.44,4.94,2.23,1.24,4.95,1.86,8.15,1.86,4.35,0,7.75-1.33,10.19-3.99,2.14-2.32,3.55-5.29,4.23-8.9.18-.94,1-1.61,1.95-1.61h9.81c1.22,0,2.17,1.09,1.98,2.3-.47,3.15-1.32,6.03-2.54,8.67-1.51,3.26-3.5,6.04-5.98,8.34s-5.38,4.05-8.7,5.26c-3.32,1.21-6.98,1.81-10.97,1.81-4.95,0-9.41-.86-13.36-2.58s-7.29-4.09-10.01-7.11c-2.72-3.02-4.8-6.57-6.25-10.65-1.45-4.08-2.17-8.47-2.17-13.18s.72-9.32,2.17-13.46c1.45-4.14,3.53-7.75,6.25-10.83,2.72-3.08,6.06-5.5,10.01-7.25s8.41-2.63,13.36-2.63c3.56,0,6.93.52,10.1,1.54s6.01,2.52,8.52,4.48c2.51,1.96,4.58,4.39,6.21,7.29,1.28,2.27,2.18,4.81,2.72,7.61.24,1.23-.73,2.36-1.97,2.36h-9.41c-1.19,0-2.25-.82-2.48-2-.03-.13-.08-.35-.13-.47Z"/>
    <path class="cls-5" d="m999.59,78c.78,1.51,1.83,2.74,3.13,3.67,1.3.94,2.82,1.63,4.58,2.08,1.75.45,3.56.68,5.44.68,1.27,0,2.63-.11,4.08-.32,1.45-.21,2.81-.62,4.08-1.22,1.27-.61,2.32-1.43,3.17-2.49.84-1.06,1.27-2.4,1.27-4.03,0-1.75-.56-3.17-1.68-4.26-1.12-1.09-2.58-1.99-4.39-2.72-1.81-.72-3.87-1.36-6.16-1.9-2.3-.55-4.62-1.15-6.98-1.81-2.42-.61-4.77-1.34-7.07-2.22-2.3-.88-4.35-2.01-6.16-3.4-1.81-1.39-3.28-3.13-4.39-5.21-1.12-2.08-1.68-4.61-1.68-7.57,0-3.32.71-6.21,2.13-8.65,1.42-2.45,3.27-4.48,5.57-6.12,2.29-1.63,4.89-2.84,7.79-3.62,2.9-.78,5.8-1.18,8.7-1.18,3.38,0,6.63.38,9.74,1.13,3.11.76,5.88,1.98,8.29,3.67,2.41,1.69,4.33,3.85,5.75,6.48,1.14,2.11,1.82,4.58,2.05,7.42.09,1.15-.84,2.14-2,2.14h-9.91c-.99,0-1.81-.73-1.97-1.71-.21-1.19-.55-2.22-1.03-3.09-.69-1.27-1.62-2.27-2.76-2.99s-2.46-1.24-3.94-1.54c-1.48-.3-3.1-.45-4.85-.45-1.15,0-2.3.12-3.44.36s-2.19.67-3.13,1.27c-.94.61-1.71,1.36-2.31,2.27s-.91,2.06-.91,3.44c0,1.27.24,2.3.73,3.08.48.79,1.43,1.51,2.85,2.17s3.38,1.33,5.89,1.99c2.51.67,5.78,1.51,9.83,2.54,1.21.24,2.88.68,5.03,1.31,2.14.63,4.27,1.65,6.39,3.04,2.11,1.39,3.94,3.25,5.48,5.57,1.54,2.33,2.31,5.3,2.31,8.93,0,2.96-.57,5.71-1.72,8.24-1.15,2.54-2.86,4.73-5.12,6.57-2.27,1.84-5.07,3.28-8.42,4.3-3.36,1.03-7.23,1.54-11.64,1.54-3.56,0-7.02-.44-10.37-1.32-3.35-.87-6.31-2.25-8.88-4.12-2.57-1.87-4.61-4.26-6.12-7.16-1.24-2.37-1.95-5.11-2.13-8.22-.07-1.14.86-2.11,2-2.11h9.89c1.01,0,1.82.78,1.94,1.78.16,1.42.52,2.67,1.08,3.74Z"/>
    <path class="cls-5" d="m503.91,167.43v7.96c0,1.1-.9,2-2,2h-30.16c-1.1,0-2,.9-2,2v9.86c0,1.1.9,2,2,2h27.35c1.1,0,2,.9,2,2v7.05c0,1.1-.9,2-2,2h-27.35c-1.1,0-2,.9-2,2v11.86c0,1.1.9,2,2,2h30.88c1.1,0,2,.9,2,2v7.96c0,1.1-.9,2-2,2h-45.11c-1.1,0-2-.9-2-2v-60.69c0-1.1.9-2,2-2h44.39c1.1,0,2,.9,2,2Z"/>
    <path class="cls-5" d="m532.83,165.43c.86,0,1.62.55,1.89,1.36l14.67,43.13h.18l13.87-43.1c.27-.83,1.04-1.39,1.9-1.39h16.57c1.1,0,2,.9,2,2v60.69c0,1.1-.9,2-2,2h-9.32c-1.1,0-2-.9-2-2v-43.85h-.18l-15.39,44.5c-.28.81-1.04,1.35-1.89,1.35h-8.12c-.85,0-1.61-.54-1.89-1.34l-15.39-44.06h-.18v43.4c0,1.1-.9,2-2,2h-9.32c-1.1,0-2-.9-2-2v-60.69c0-1.1.9-2,2-2h16.59Z"/>
    <path class="cls-5" d="m644.8,167.43v7.96c0,1.1-.9,2-2,2h-30.16c-1.1,0-2,.9-2,2v9.86c0,1.1.9,2,2,2h27.35c1.1,0,2,.9,2,2v7.05c0,1.1-.9,2-2,2h-27.35c-1.1,0-2,.9-2,2v11.86c0,1.1.9,2,2,2h30.88c1.1,0,2,.9,2,2v7.96c0,1.1-.9,2-2,2h-45.11c-1.1,0-2-.9-2-2v-60.69c0-1.1.9-2,2-2h44.39c1.1,0,2,.9,2,2Z"/>
    <path class="cls-5" d="m690.02,165.43c2.9,0,5.51.47,7.84,1.4,2.33.94,4.32,2.22,5.98,3.85,1.66,1.63,2.93,3.52,3.8,5.66.87,2.14,1.31,4.46,1.31,6.93,0,3.8-.8,7.1-2.4,9.87-1.6,2.78-4.22,4.89-7.84,6.34v.18c1.75.48,3.2,1.22,4.35,2.22,1.15.99,2.08,2.17,2.81,3.53.72,1.36,1.25,2.85,1.59,4.48.33,1.63.56,3.26.68,4.89.06,1.03.12,2.23.18,3.62.06,1.39.17,2.81.32,4.26.15,1.45.39,2.82.73,4.12l.21.81c.33,1.27-.63,2.5-1.94,2.5h-9.56c-.89,0-1.67-.58-1.92-1.43-.51-1.73-.83-3.7-.97-5.91-.18-2.84-.45-5.56-.82-8.15-.48-3.38-1.51-5.86-3.08-7.43-1.57-1.57-4.14-2.35-7.7-2.35h-12.22c-1.1,0-2,.9-2,2v21.28c0,1.1-.9,2-2,2h-10.22c-1.1,0-2-.9-2-2v-60.69c0-1.1.9-2,2-2h32.88Zm-5.08,29.26c3.26,0,5.71-.72,7.34-2.17,1.63-1.45,2.45-3.8,2.45-7.07s-.82-5.42-2.45-6.84c-1.63-1.42-4.08-2.13-7.34-2.13h-13.58c-1.1,0-2,.9-2,2v14.21c0,1.1.9,2,2,2h13.58Z"/>
    <path class="cls-5" d="m758.87,229.62c-3.08,1.3-6.19,1.95-9.33,1.95-4.96,0-9.41-.86-13.36-2.58-3.96-1.72-7.29-4.09-10.01-7.11-2.72-3.02-4.8-6.57-6.25-10.65-1.45-4.08-2.17-8.47-2.17-13.18s.73-9.32,2.17-13.46c1.45-4.14,3.54-7.75,6.25-10.83,2.72-3.08,6.06-5.5,10.01-7.25,3.95-1.75,8.41-2.63,13.36-2.63,3.32,0,6.54.5,9.65,1.5,3.11.99,5.92,2.46,8.43,4.39,2.51,1.94,4.58,4.32,6.2,7.16,1.28,2.22,2.17,4.71,2.67,7.45.22,1.22-.74,2.34-1.98,2.34h-9.77c-.87,0-1.64-.56-1.9-1.39-.91-2.94-2.42-5.19-4.51-6.76-2.42-1.81-5.35-2.72-8.79-2.72-3.2,0-5.92.62-8.15,1.85-2.24,1.24-4.05,2.9-5.44,4.98-1.39,2.08-2.4,4.46-3.04,7.11s-.95,5.41-.95,8.25.32,5.36.95,7.93c.63,2.57,1.65,4.88,3.04,6.93,1.39,2.05,3.2,3.7,5.44,4.94,2.23,1.24,4.95,1.86,8.15,1.86,4.71,0,8.35-1.19,10.92-3.58,2.09-1.94,3.47-4.59,4.14-7.95.25-1.25-.69-2.42-1.96-2.42h-10.01c-1.1,0-2-.9-2-2v-6.6c0-1.1.9-2,2-2h23.18c1.1,0,2,.9,2,2v30.98c0,1.1-.9,2-2,2h-5.42c-.96,0-1.78-.68-1.96-1.61l-.36-1.8c-.31-1.57-2.23-2.13-3.38-1.02-1.82,1.75-3.76,3.06-5.82,3.93Z"/>
    <path class="cls-5" d="m837.7,167.43v7.96c0,1.1-.9,2-2,2h-30.16c-1.1,0-2,.9-2,2v9.86c0,1.1.9,2,2,2h27.35c1.1,0,2,.9,2,2v7.05c0,1.1-.9,2-2,2h-27.35c-1.1,0-2,.9-2,2v11.86c0,1.1.9,2,2,2h30.88c1.1,0,2,.9,2,2v7.96c0,1.1-.9,2-2,2h-45.11c-1.1,0-2-.9-2-2v-60.69c0-1.1.9-2,2-2h44.38c1.1,0,2,.9,2,2Z"/>
    <path class="cls-5" d="m861.06,165.43c.69,0,1.33.36,1.7.94l26.41,42.46h.18v-41.4c0-1.1.9-2,2-2h9.32c1.1,0,2,.9,2,2v60.69c0,1.1-.9,2-2,2h-11.11c-.69,0-1.33-.36-1.7-.94l-26.32-42.37h-.18v41.31c0,1.1-.9,2-2,2h-9.32c-1.1,0-2-.9-2-2v-60.69c0-1.1.9-2,2-2h11.03Z"/>
    <path class="cls-5" d="m957.71,184.68c-.96-2.22-2.35-4.07-4.21-5.58-1.27-1.03-2.7-1.83-4.3-2.4s-3.28-.86-5.03-.86c-3.2,0-5.92.62-8.15,1.85-2.24,1.24-4.05,2.9-5.44,4.98-1.39,2.08-2.4,4.46-3.04,7.11-.63,2.66-.95,5.41-.95,8.25s.32,5.36.95,7.93c.63,2.57,1.65,4.88,3.04,6.93,1.39,2.05,3.2,3.7,5.44,4.94,2.23,1.24,4.95,1.86,8.15,1.86,4.35,0,7.74-1.33,10.19-3.99,2.14-2.32,3.55-5.29,4.23-8.9.18-.93,1-1.61,1.95-1.61h9.81c1.22,0,2.17,1.09,1.99,2.3-.47,3.15-1.32,6.03-2.54,8.67-1.51,3.26-3.5,6.04-5.98,8.34-2.48,2.3-5.38,4.05-8.7,5.26-3.32,1.21-6.98,1.81-10.96,1.81-4.96,0-9.41-.86-13.36-2.58-3.96-1.72-7.29-4.09-10.01-7.11-2.72-3.02-4.8-6.57-6.25-10.65-1.45-4.08-2.17-8.47-2.17-13.18s.73-9.32,2.17-13.46c1.45-4.14,3.54-7.75,6.25-10.83,2.72-3.08,6.06-5.5,10.01-7.25,3.95-1.75,8.41-2.63,13.36-2.63,3.56,0,6.93.52,10.1,1.54,3.17,1.03,6.01,2.52,8.52,4.48,2.51,1.96,4.58,4.39,6.21,7.29,1.28,2.27,2.19,4.81,2.72,7.61.23,1.22-.73,2.36-1.97,2.36h-9.41c-1.19,0-2.25-.82-2.48-2.01-.03-.16-.07-.33-.14-.48Z"/>
    <path class="cls-5" d="m978.87,165.43h11.27c.71,0,1.36.37,1.72.98l12.82,21.66c.78,1.31,2.67,1.31,3.44,0l12.74-21.65c.36-.61,1.02-.99,1.72-.99h11.17c1.56,0,2.52,1.7,1.71,3.03l-21.9,36.36c-.19.31-.29.67-.29,1.03v22.27c0,1.1-.9,2-2,2h-10.22c-1.1,0-2-.9-2-2v-22.64c0-.36-.1-.72-.29-1.03l-21.63-36c-.8-1.33.16-3.03,1.71-3.03Z"/>
    <path class="cls-3" d="m53.85,76.6l37.5,7.49c1.4.28,2.63-.95,2.35-2.35l-7.49-37.5c-.31-1.57-2.25-2.15-3.38-1.02l-5.33,5.33c-.78.78-2.05.78-2.83,0l-21.03-21.03c-.78-.78-2.05-.78-2.83,0l-13.69,13.69c-.78.78-.78,2.05,0,2.83l21.03,21.03c.78.78.78,2.05,0,2.83l-5.33,5.33c-1.13,1.13-.54,3.06,1.02,3.38Z"/>
    <path class="cls-3" d="m341.58,318.95l-37.5-7.49c-1.4-.28-2.63.95-2.35,2.35l7.49,37.5c.31,1.57,2.25,2.15,3.38,1.02l5.33-5.33c.78-.78,2.05-.78,2.83,0l21.03,21.03c.78.78,2.05.78,2.83,0l13.69-13.69c.78-.78.78-2.05,0-2.83l-21.03-21.03c-.78-.78-.78-2.05,0-2.83l5.33-5.33c1.13-1.13.54-3.06-1.02-3.38Z"/>
    <path class="cls-1" d="m309.22,44.24l-7.49,37.5c-.28,1.4.95,2.63,2.35,2.35l37.5-7.49c1.57-.31,2.15-2.25,1.02-3.38l-5.33-5.33c-.78-.78-.78-2.05,0-2.83l21.03-21.03c.78-.78.78-2.05,0-2.83l-13.69-13.69c-.78-.78-2.05-.78-2.83,0l-21.03,21.03c-.78.78-2.05.78-2.83,0l-5.33-5.33c-1.13-1.13-3.06-.54-3.38,1.02Z"/>
    <path class="cls-1" d="m86.21,351.31l7.49-37.5c.28-1.4-.95-2.63-2.35-2.35l-37.5,7.49c-1.57.31-2.15,2.25-1.02,3.38l5.33,5.33c.78.78.78,2.05,0,2.83l-21.03,21.03c-.78.78-.78,2.05,0,2.83l13.69,13.69c.78.78,2.05.78,2.83,0l21.03-21.03c.78-.78,2.05-.78,2.83,0l5.33,5.33c1.13,1.13,3.06.54,3.38-1.02Z"/>
    <g>
      <path class="cls-4" d="m483.98,301.64c4.17,0,8.05.67,11.64,1.99,3.59,1.33,6.7,3.32,9.33,5.98,2.63,2.66,4.68,5.98,6.16,9.97,1.48,3.99,2.22,8.67,2.22,14.04,0,4.71-.6,9.06-1.81,13.05-1.21,3.99-3.03,7.43-5.48,10.33-2.45,2.9-5.5,5.18-9.15,6.84-3.66,1.66-7.96,2.49-12.91,2.49h-25.91c-1.1,0-2-.9-2-2v-60.69c0-1.1.9-2,2-2h25.91Zm-1,52.73c2.05,0,4.05-.33,5.98-1,1.93-.66,3.65-1.77,5.16-3.31s2.72-3.55,3.62-6.03c.91-2.47,1.36-5.49,1.36-9.06,0-3.26-.32-6.2-.95-8.83-.63-2.63-1.67-4.88-3.13-6.75-1.45-1.87-3.37-3.31-5.75-4.3-2.39-.99-5.33-1.49-8.83-1.49h-8.15c-1.1,0-2,.9-2,2v36.77c0,1.1.9,2,2,2h10.69Z"/>
      <path class="cls-4" d="m558.1,301.64c2.9,0,5.51.47,7.84,1.4,2.33.94,4.32,2.22,5.98,3.85,1.66,1.63,2.93,3.52,3.8,5.66.87,2.14,1.31,4.46,1.31,6.93,0,3.8-.8,7.1-2.4,9.87-1.6,2.78-4.22,4.89-7.84,6.34v.18c1.75.48,3.2,1.22,4.35,2.22,1.15.99,2.08,2.17,2.81,3.53.72,1.36,1.25,2.85,1.59,4.48.33,1.63.56,3.26.68,4.89.06,1.03.12,2.23.18,3.62.06,1.39.17,2.81.32,4.26.15,1.45.39,2.82.73,4.12l.21.81c.33,1.27-.63,2.5-1.94,2.5h-9.56c-.89,0-1.67-.58-1.92-1.43-.51-1.73-.83-3.7-.97-5.91-.18-2.84-.45-5.56-.82-8.15-.48-3.38-1.51-5.86-3.08-7.43-1.57-1.57-4.14-2.35-7.7-2.35h-12.22c-1.1,0-2,.9-2,2v21.28c0,1.1-.9,2-2,2h-10.22c-1.1,0-2-.9-2-2v-60.69c0-1.1.9-2,2-2h32.88Zm-5.08,29.26c3.26,0,5.71-.72,7.34-2.17,1.63-1.45,2.45-3.8,2.45-7.07s-.82-5.42-2.45-6.84c-1.63-1.42-4.08-2.13-7.34-2.13h-13.58c-1.1,0-2,.9-2,2v14.21c0,1.1.9,2,2,2h13.58Z"/>
      <path class="cls-4" d="m602.86,303.64v60.69c0,1.1-.9,2-2,2h-10.22c-1.1,0-2-.9-2-2v-60.69c0-1.1.9-2,2-2h10.22c1.1,0,2,.9,2,2Z"/>
      <path class="cls-4" d="m629.59,303.64v48.73c0,1.1.9,2,2,2h27.53c1.1,0,2,.9,2,2v7.96c0,1.1-.9,2-2,2h-41.76c-1.1,0-2-.9-2-2v-60.69c0-1.1.9-2,2-2h10.22c1.1,0,2,.9,2,2Z"/>
      <path class="cls-4" d="m683.32,303.64v48.73c0,1.1.9,2,2,2h27.53c1.1,0,2,.9,2,2v7.96c0,1.1-.9,2-2,2h-41.76c-1.1,0-2-.9-2-2v-60.69c0-1.1.9-2,2-2h10.22c1.1,0,2,.9,2,2Z"/>
    </g>
  </g>
</svg>