<?xml version="1.0" encoding="UTF-8"?>
<svg id="Layer_2" data-name="Layer 2" xmlns="http://www.w3.org/2000/svg" viewBox="0 0 664.13 381.64">
  <defs>
    <style>
      .cls-1, .cls-2, .cls-3, .cls-4 {
        fill: none;
        stroke-width: 2px;
      }

      .cls-1, .cls-3 {
        stroke: aqua;
      }

      .cls-2, .cls-4 {
        stroke: #fff;
      }

      .cls-5, .cls-3, .cls-4 {
        stroke-miterlimit: 10;
      }

      .cls-5, .cls-6 {
        fill: #0f1221;
        stroke: #f0f;
        stroke-width: 2.05px;
      }

      .cls-7 {
        fill: #fff;
      }

      .cls-7, .cls-8 {
        stroke-width: 0px;
      }

      .cls-8 {
        fill: #f0f;
      }

      .cls-6 {
        stroke-linejoin: bevel;
      }
    </style>
  </defs>
  <g id="Layer_1-2" data-name="Layer 1">
    <g>
      <path class="cls-2" d="m80.45,44.71c5.09,0,9.84.81,14.23,2.44,4.39,1.62,8.19,4.06,11.41,7.31s5.72,7.31,7.53,12.18c1.81,4.87,2.71,10.59,2.71,17.16,0,5.76-.74,11.07-2.21,15.95-1.48,4.87-3.71,9.08-6.7,12.62-2.99,3.54-6.72,6.33-11.18,8.36-4.47,2.03-9.73,3.05-15.78,3.05h-32.8c-.72,0-1.3-.58-1.3-1.3V46.02c0-.72.58-1.3,1.3-1.3h32.8Zm-1.22,64.45c2.51,0,4.95-.4,7.31-1.22,2.36-.81,4.46-2.16,6.31-4.04,1.84-1.88,3.32-4.34,4.43-7.36,1.11-3.03,1.66-6.72,1.66-11.07,0-3.99-.39-7.58-1.16-10.8-.78-3.21-2.05-5.96-3.82-8.25s-4.12-4.04-7.03-5.26c-2.92-1.22-6.52-1.83-10.8-1.83h-11.1c-.72,0-1.3.58-1.3,1.3v47.22c0,.72.58,1.3,1.3,1.3h14.2Z"/>
      <path class="cls-2" d="m176.57,44.71c3.54,0,6.73.57,9.58,1.72,2.84,1.15,5.28,2.71,7.31,4.71,2.03,1.99,3.58,4.3,4.65,6.92,1.07,2.62,1.61,5.45,1.61,8.47,0,4.65-.98,8.67-2.93,12.07-1.96,3.4-5.15,5.98-9.58,7.75v.22c2.14.59,3.91,1.5,5.31,2.71,1.4,1.22,2.55,2.66,3.43,4.32.89,1.66,1.53,3.49,1.94,5.48.4,1.99.68,3.99.83,5.98.07,1.26.15,2.73.22,4.43.07,1.7.2,3.43.39,5.21.18,1.77.48,3.45.89,5.04.2.8.46,1.53.76,2.21.39.86-.23,1.84-1.18,1.84h-14.21c-.56,0-1.06-.34-1.24-.87-.78-2.32-1.26-5.02-1.46-8.1-.22-3.47-.55-6.79-1-9.97-.59-4.13-1.85-7.16-3.77-9.08-1.92-1.92-5.06-2.88-9.41-2.88h-16.08c-.72,0-1.3.58-1.3,1.3v28.28c0,.72-.58,1.3-1.3,1.3h-14.77c-.72,0-1.3-.58-1.3-1.3V46.02c0-.72.58-1.3,1.3-1.3h41.33Zm-6.2,35.77c3.99,0,6.98-.89,8.97-2.66s2.99-4.65,2.99-8.64-1-6.62-2.99-8.36c-1.99-1.73-4.98-2.6-8.97-2.6h-17.74c-.72,0-1.3.58-1.3,1.3v19.65c0,.72.58,1.3,1.3,1.3h17.74Z"/>
      <path class="cls-2" d="m236.8,46.02v76.45c0,.72-.58,1.3-1.3,1.3h-14.77c-.72,0-1.3-.58-1.3-1.3V46.02c0-.72.58-1.3,1.3-1.3h14.77c.72,0,1.3.58,1.3,1.3Z"/>
      <path class="cls-2" d="m275,46.02v61.84c0,.72.58,1.3,1.3,1.3h35.93c.72,0,1.3.58,1.3,1.3v12.01c0,.72-.58,1.3-1.3,1.3h-53.31c-.72,0-1.3-.58-1.3-1.3V46.02c0-.72.58-1.3,1.3-1.3h14.77c.72,0,1.3.58,1.3,1.3Z"/>
      <path class="cls-2" d="m346.21,46.02v61.84c0,.72.58,1.3,1.3,1.3h35.93c.72,0,1.3.58,1.3,1.3v12.01c0,.72-.58,1.3-1.3,1.3h-53.31c-.72,0-1.3-.58-1.3-1.3V46.02c0-.72.58-1.3,1.3-1.3h14.78c.72,0,1.3.58,1.3,1.3Z"/>
      <path class="cls-1" d="m105.48,158.83v12.01c0,.72-.58,1.3-1.3,1.3h-39.14c-.72,0-1.3.58-1.3,1.3v14.33c0,.72.58,1.3,1.3,1.3h35.7c.72,0,1.3.58,1.3,1.3v10.9c0,.72-.58,1.3-1.3,1.3h-35.7c-.72,0-1.3.58-1.3,1.3v16.77c0,.72.58,1.3,1.3,1.3h40.02c.72,0,1.3.58,1.3,1.3v12.01c0,.72-.58,1.3-1.3,1.3h-57.41c-.72,0-1.3-.58-1.3-1.3v-76.45c0-.72.58-1.3,1.3-1.3h56.52c.72,0,1.3.58,1.3,1.3Z"/>
      <path class="cls-1" d="m120,157.53h16.97c.45,0,.87.24,1.11.62l14.03,22.85c.5.82,1.7.83,2.21.02l14.55-22.88c.24-.38.65-.6,1.1-.6h15.88c1.04,0,1.67,1.17,1.08,2.03l-23.51,35c-.29.44-.3,1.01,0,1.45l25.73,38.55c.58.87-.04,2.03-1.09,2.03h-17.55c-.45,0-.86-.23-1.1-.61l-15.8-25.01c-.51-.81-1.68-.81-2.2,0l-16.11,25.03c-.24.37-.65.6-1.1.6h-16.34c-1.04,0-1.66-1.16-1.09-2.03l25.74-38.66c.29-.44.29-1.02,0-1.45l-23.6-34.89c-.59-.87.03-2.04,1.08-2.04Z"/>
      <path class="cls-1" d="m220.41,158.83v76.45c0,.72-.58,1.3-1.3,1.3h-14.77c-.72,0-1.3-.58-1.3-1.3v-76.45c0-.72.58-1.3,1.3-1.3h14.77c.72,0,1.3.58,1.3,1.3Z"/>
      <path class="cls-1" d="m235.03,170.84v-12.01c0-.72.58-1.3,1.3-1.3h62.17c.72,0,1.3.58,1.3,1.3v12.01c0,.72-.58,1.3-1.3,1.3h-21.09c-.72,0-1.3.58-1.3,1.3v61.84c0,.72-.58,1.3-1.3,1.3h-14.78c-.72,0-1.3-.58-1.3-1.3v-61.84c0-.72-.58-1.3-1.3-1.3h-21.09c-.72,0-1.3-.58-1.3-1.3Z"/>
    </g>
    <path class="cls-4" d="m82.49,329.95l26.42-17.62c.99-.66.99-2.11,0-2.76l-26.42-17.62c-1.1-.74-2.58.05-2.58,1.38v6.26c0,.92-.74,1.66-1.66,1.66h-24.7c-.92,0-1.66.74-1.66,1.66v16.08c0,.92.74,1.66,1.66,1.66h24.7c.92,0,1.66.74,1.66,1.66v6.26c0,1.33,1.48,2.12,2.58,1.38Z"/>
    <path class="cls-4" d="m235.68,329.95l26.42-17.62c.99-.66.99-2.11,0-2.76l-26.42-17.62c-1.1-.74-2.58.05-2.58,1.38v6.26c0,.92-.74,1.66-1.66,1.66h-24.7c-.92,0-1.66.74-1.66,1.66v16.08c0,.92.74,1.66,1.66,1.66h24.7c.92,0,1.66.74,1.66,1.66v6.26c0,1.33,1.48,2.12,2.58,1.38Z"/>
    <path class="cls-3" d="m157.4,329.95l26.42-17.62c.99-.66.99-2.11,0-2.76l-26.42-17.62c-1.1-.74-2.58.05-2.58,1.38v6.26c0,.92-.74,1.66-1.66,1.66h-24.7c-.92,0-1.66.74-1.66,1.66v16.08c0,.92.74,1.66,1.66,1.66h24.7c.92,0,1.66.74,1.66,1.66v6.26c0,1.33,1.48,2.12,2.58,1.38Z"/>
    <path class="cls-3" d="m313.44,329.95l26.42-17.62c.99-.66.99-2.11,0-2.76l-26.42-17.62c-1.1-.74-2.58.05-2.58,1.38v6.26c0,.92-.74,1.66-1.66,1.66h-24.7c-.92,0-1.66.74-1.66,1.66v16.08c0,.92.74,1.66,1.66,1.66h24.7c.92,0,1.66.74,1.66,1.66v6.26c0,1.33,1.48,2.12,2.58,1.38Z"/>
    <path class="cls-7" d="m616.44,41.84c.57,0,1.02.46,1.02,1.02v215.68c0,.57-.46,1.02-1.02,1.02h-150.56c-.57,0-1.02-.46-1.02-1.02V42.86c0-.57.46-1.02,1.02-1.02h150.56m0-2.05h-150.56c-1.7,0-3.07,1.38-3.07,3.07v215.68c0,1.7,1.38,3.07,3.07,3.07h150.56c1.7,0,3.07-1.38,3.07-3.07V42.86c0-1.7-1.38-3.07-3.07-3.07h0Z"/>
    <path class="cls-7" d="m612.33,274.85c.61,0,.86.43.94.62s.22.67-.2,1.11l-43.97,46.01c-.19.2-.46.32-.74.32h-148.2c-.61,0-.86-.43-.94-.62s-.22-.67.2-1.11l43.97-46.01c.19-.2.46-.32.74-.32h148.2m0-2.05h-148.2c-.84,0-1.64.34-2.22.95l-43.97,46.01c-1.87,1.96-.48,5.2,2.22,5.2h148.2c.84,0,1.64-.34,2.22-.95l43.97-46.01c1.87-1.96.48-5.2-2.22-5.2h0Z"/>
    <path class="cls-8" d="m655.88,3.75c2.48,0,4.5,2.02,4.5,4.5v365.14c0,2.48-2.02,4.5-4.5,4.5H8.25c-2.48,0-4.5-2.02-4.5-4.5V8.25c0-2.48,2.02-4.5,4.5-4.5h647.63m0-2.5H8.25c-3.87,0-7,3.13-7,7v365.14c0,3.87,3.13,7,7,7h647.63c3.87,0,7-3.13,7-7V8.25c0-3.87-3.13-7-7-7h0Z"/>
    <path class="cls-6" d="m541.64,265.47c-.63,0-1.27-.05-1.9-.16-6.07-1.04-10.16-6.82-9.12-12.89l5.95-34.78c.15-.88-.11-1.76-.71-2.41l-23.78-26.15c-1.32-1.46-3.61-1.46-4.94,0l-30.58,33.63c-1.65,1.82-4,2.86-6.46,2.86h-41.99c-.9,0-1.75-.37-2.39-1-9.76-9.62-3.03-21.33,6.38-21.33h30.5c.94,0,1.84-.4,2.47-1.09l22.94-25.22c.38-.42.65-.92.78-1.47l10.11-42.44c.5-2.1-1.09-4.11-3.25-4.11h-14.52c-1.1,0-2.13.54-2.76,1.45l-14.02,20.52c-.21.31-.47.59-.77.81-4.5,3.31-9.8,3.3-13.73.62-2.46-1.68-4.12-4.22-4.67-7.15-.55-2.93.07-5.9,1.75-8.36l18.04-26.41c1.63-2.38,4.32-3.8,7.21-3.8h66.63c3.39,0,6.53,1.66,8.42,4.43l14.12,20.66c.62.91,1.65,1.45,2.76,1.45h27.76c6.19,0,11.32,4.91,11.44,10.96.09,5.02-3.1,9.58-8.63,11.24-.31.09-.64.13-.97.13h-41.39c-1.1,0-2.13-.54-2.76-1.45l-6.83-9.99c-1.63-2.39-5.33-1.71-6,1.11l-6.75,28.33c-.26,1.07.04,2.2.78,3.02l27.01,29.7c1.82,2,2.6,4.68,2.14,7.34l-7.31,42.7c-.92,5.38-5.54,9.28-10.99,9.28"/>
    <path class="cls-5" d="m527.53,96.53c-15.62,0-27.12-17.95-14.95-34.3.2-.27.45-.51.71-.71,16.35-12.14,34.28-.64,34.28,14.97,0,11.05-8.99,20.04-20.04,20.04"/>
  </g>
</svg>