<?xml version="1.0" encoding="UTF-8"?>
<svg id="Layer_2" data-name="Layer 2" xmlns="http://www.w3.org/2000/svg" viewBox="0 0 1920 1080">
  <defs>
    <style>
      .cls-1 {
        opacity: .1;
      }

      .cls-2 {
        fill: #0f1221;
        stroke-width: 0px;
      }

      .cls-3 {
        fill: none;
        stroke: #fff;
        stroke-miterlimit: 10;
        stroke-width: .5px;
      }
    </style>
  </defs>
  <g id="Layer_1-2" data-name="Layer 1">
    <rect class="cls-2" width="1920" height="1080"/>
    <g class="cls-1">
      <line class="cls-3" y1="7.59" x2="1920" y2="7.59"/>
      <line class="cls-3" y1="17.59" x2="1920" y2="17.59"/>
      <line class="cls-3" y1="27.59" x2="1920" y2="27.59"/>
      <line class="cls-3" y1="37.59" x2="1920" y2="37.59"/>
      <line class="cls-3" y1="47.59" x2="1920" y2="47.59"/>
      <line class="cls-3" y1="57.59" x2="1920" y2="57.59"/>
      <line class="cls-3" y1="67.59" x2="1920" y2="67.59"/>
      <line class="cls-3" y1="77.59" x2="1920" y2="77.59"/>
      <line class="cls-3" y1="87.59" x2="1920" y2="87.59"/>
      <line class="cls-3" y1="97.59" x2="1920" y2="97.59"/>
      <line class="cls-3" y1="107.59" x2="1920" y2="107.59"/>
      <line class="cls-3" y1="117.59" x2="1920" y2="117.59"/>
      <line class="cls-3" y1="127.59" x2="1920" y2="127.59"/>
      <line class="cls-3" y1="137.59" x2="1920" y2="137.59"/>
      <line class="cls-3" y1="147.59" x2="1920" y2="147.59"/>
      <line class="cls-3" y1="157.59" x2="1920" y2="157.59"/>
      <line class="cls-3" y1="167.59" x2="1920" y2="167.59"/>
      <line class="cls-3" y1="177.59" x2="1920" y2="177.59"/>
      <line class="cls-3" y1="187.59" x2="1920" y2="187.59"/>
      <line class="cls-3" y1="197.59" x2="1920" y2="197.59"/>
      <line class="cls-3" y1="207.59" x2="1920" y2="207.59"/>
      <line class="cls-3" y1="217.59" x2="1920" y2="217.59"/>
      <line class="cls-3" y1="227.59" x2="1920" y2="227.59"/>
      <line class="cls-3" y1="237.59" x2="1920" y2="237.59"/>
      <line class="cls-3" y1="247.59" x2="1920" y2="247.59"/>
      <line class="cls-3" y1="257.59" x2="1920" y2="257.59"/>
      <line class="cls-3" y1="267.59" x2="1920" y2="267.59"/>
      <line class="cls-3" y1="277.59" x2="1920" y2="277.59"/>
      <line class="cls-3" y1="287.59" x2="1920" y2="287.59"/>
      <line class="cls-3" y1="297.59" x2="1920" y2="297.59"/>
      <line class="cls-3" y1="307.59" x2="1920" y2="307.59"/>
      <line class="cls-3" y1="317.59" x2="1920" y2="317.59"/>
      <line class="cls-3" y1="327.59" x2="1920" y2="327.59"/>
      <line class="cls-3" y1="337.59" x2="1920" y2="337.59"/>
      <line class="cls-3" y1="347.59" x2="1920" y2="347.59"/>
      <line class="cls-3" y1="357.59" x2="1920" y2="357.59"/>
      <line class="cls-3" y1="367.59" x2="1920" y2="367.59"/>
      <line class="cls-3" y1="377.59" x2="1920" y2="377.59"/>
      <line class="cls-3" y1="387.59" x2="1920" y2="387.59"/>
      <line class="cls-3" y1="397.59" x2="1920" y2="397.59"/>
      <line class="cls-3" y1="407.59" x2="1920" y2="407.59"/>
      <line class="cls-3" y1="417.59" x2="1920" y2="417.59"/>
      <line class="cls-3" y1="427.59" x2="1920" y2="427.59"/>
      <line class="cls-3" y1="437.59" x2="1920" y2="437.59"/>
      <line class="cls-3" y1="447.59" x2="1920" y2="447.59"/>
      <line class="cls-3" y1="457.59" x2="1920" y2="457.59"/>
      <line class="cls-3" y1="467.59" x2="1920" y2="467.59"/>
      <line class="cls-3" y1="477.59" x2="1920" y2="477.59"/>
      <line class="cls-3" y1="487.59" x2="1920" y2="487.59"/>
      <line class="cls-3" y1="497.59" x2="1920" y2="497.59"/>
      <line class="cls-3" y1="507.59" x2="1920" y2="507.59"/>
      <line class="cls-3" y1="517.59" x2="1920" y2="517.59"/>
      <line class="cls-3" y1="527.59" x2="1920" y2="527.59"/>
      <line class="cls-3" y1="537.59" x2="1920" y2="537.59"/>
      <line class="cls-3" y1="547.59" x2="1920" y2="547.59"/>
      <line class="cls-3" y1="557.59" x2="1920" y2="557.59"/>
      <line class="cls-3" y1="567.59" x2="1920" y2="567.59"/>
      <line class="cls-3" y1="577.59" x2="1920" y2="577.59"/>
      <line class="cls-3" y1="587.59" x2="1920" y2="587.59"/>
      <line class="cls-3" y1="597.59" x2="1920" y2="597.59"/>
      <line class="cls-3" y1="607.59" x2="1920" y2="607.59"/>
      <line class="cls-3" y1="617.59" x2="1920" y2="617.59"/>
      <line class="cls-3" y1="627.59" x2="1920" y2="627.59"/>
      <line class="cls-3" y1="637.59" x2="1920" y2="637.59"/>
      <line class="cls-3" y1="647.59" x2="1920" y2="647.59"/>
      <line class="cls-3" y1="657.59" x2="1920" y2="657.59"/>
      <line class="cls-3" y1="667.59" x2="1920" y2="667.59"/>
      <line class="cls-3" y1="677.59" x2="1920" y2="677.59"/>
      <line class="cls-3" y1="687.59" x2="1920" y2="687.59"/>
      <line class="cls-3" y1="697.59" x2="1920" y2="697.59"/>
      <line class="cls-3" y1="707.59" x2="1920" y2="707.59"/>
      <line class="cls-3" y1="717.59" x2="1920" y2="717.59"/>
      <line class="cls-3" y1="727.59" x2="1920" y2="727.59"/>
      <line class="cls-3" y1="737.59" x2="1920" y2="737.59"/>
      <line class="cls-3" y1="747.59" x2="1920" y2="747.59"/>
      <line class="cls-3" y1="757.59" x2="1920" y2="757.59"/>
      <line class="cls-3" y1="767.59" x2="1920" y2="767.59"/>
      <line class="cls-3" y1="777.59" x2="1920" y2="777.59"/>
      <line class="cls-3" y1="787.59" x2="1920" y2="787.59"/>
      <line class="cls-3" y1="797.59" x2="1920" y2="797.59"/>
      <line class="cls-3" y1="807.59" x2="1920" y2="807.59"/>
      <line class="cls-3" y1="817.59" x2="1920" y2="817.59"/>
      <line class="cls-3" y1="827.59" x2="1920" y2="827.59"/>
      <line class="cls-3" y1="837.59" x2="1920" y2="837.59"/>
      <line class="cls-3" y1="847.59" x2="1920" y2="847.59"/>
      <line class="cls-3" y1="857.59" x2="1920" y2="857.59"/>
      <line class="cls-3" y1="867.59" x2="1920" y2="867.59"/>
      <line class="cls-3" y1="877.59" x2="1920" y2="877.59"/>
      <line class="cls-3" y1="887.59" x2="1920" y2="887.59"/>
      <line class="cls-3" y1="897.59" x2="1920" y2="897.59"/>
      <line class="cls-3" y1="907.59" x2="1920" y2="907.59"/>
      <line class="cls-3" y1="917.59" x2="1920" y2="917.59"/>
      <line class="cls-3" y1="927.59" x2="1920" y2="927.59"/>
      <line class="cls-3" y1="937.59" x2="1920" y2="937.59"/>
      <line class="cls-3" y1="947.59" x2="1920" y2="947.59"/>
      <text/>
      <line class="cls-3" y1="967.59" x2="1920" y2="967.59"/>
      <line class="cls-3" y1="977.59" x2="1920" y2="977.59"/>
      <line class="cls-3" y1="987.59" x2="1920" y2="987.59"/>
      <line class="cls-3" y1="997.59" x2="1920" y2="997.59"/>
      <line class="cls-3" y1="1007.59" x2="1920" y2="1007.59"/>
      <line class="cls-3" y1="1017.59" x2="1920" y2="1017.59"/>
      <line class="cls-3" y1="1027.59" x2="1920" y2="1027.59"/>
      <line class="cls-3" y1="1037.59" x2="1920" y2="1037.59"/>
      <line class="cls-3" y1="1047.59" x2="1920" y2="1047.59"/>
      <line class="cls-3" y1="1057.59" x2="1920" y2="1057.59"/>
      <line class="cls-3" y1="1067.59" x2="1920" y2="1067.59"/>
      <line class="cls-3" y1="1077.59" x2="1920" y2="1077.59"/>
    </g>
  </g>
</svg>